<svg width="30" height="30" viewBox="0 0 30 30" fill="none" xmlns="http://www.w3.org/2000/svg">
<rect x="0.5" y="0.5" width="29" height="29" rx="6.5" fill="white" stroke="#F8F8F8"/>
<path d="M15.3899 20.6864C15.4509 20.6476 16.8854 19.7313 18.3371 18.4025C19.2122 17.6008 19.917 16.8101 20.4295 16.0519C20.753 15.5727 21.0077 15.0983 21.1828 14.6409C21.3937 14.0935 21.5 13.5555 21.5 13.0392C21.5015 12.4918 21.3906 11.96 21.1734 11.4592C20.9639 10.9779 20.6619 10.5418 20.2842 10.1753L15.3899 20.6864ZM15.3899 20.6864L15.0196 20.9221M15.3899 20.6864L15.0196 20.9221M20.7148 11.6585C20.5314 11.2373 20.267 10.8553 19.936 10.5341L19.9356 10.5337C19.6035 10.2108 19.2118 9.9539 18.7817 9.77731L18.781 9.77704C18.3348 9.59311 17.856 9.49891 17.3725 9.50001L17.3714 9.50001C16.6917 9.50001 16.0296 9.68466 15.4551 10.0325L15.455 10.0325C15.3176 10.1157 15.1874 10.2068 15.0643 10.3059L14.7508 10.5582L14.4373 10.3059C14.3142 10.2068 14.184 10.1157 14.0465 10.0325L14.0465 10.0325C13.4719 9.68466 12.8099 9.50001 12.1302 9.50001C11.6398 9.50001 11.1671 9.59299 10.7205 9.77705L10.72 9.77727C10.2882 9.95465 9.89974 10.2094 9.56579 10.5339L9.56511 10.5346L9.56511 10.5346C9.23393 10.8552 8.96959 11.2369 8.78688 11.6581L20.7148 11.6585ZM20.7148 11.6585C20.9048 12.0966 21.0013 12.5602 21 13.0377V13.0392C21 13.4865 20.9079 13.9636 20.7162 14.461L20.7158 14.4622C20.557 14.8772 20.3218 15.3178 20.0153 15.7718C19.5302 16.4894 18.854 17.2509 17.9995 18.0336C16.5792 19.3337 15.1726 20.232 15.1216 20.2645L15.1215 20.2646L14.7521 20.4996L14.7521 20.4996L14.7517 20.4998L14.75 20.5L14.7483 20.4998L14.7479 20.4996L14.7479 20.4996L14.3785 20.2646L14.3786 20.2645L14.3706 20.2597C14.371 20.2599 14.3705 20.2596 14.3691 20.2587C14.3666 20.2571 14.3612 20.2537 14.3522 20.248C14.3394 20.2398 14.3214 20.2282 14.2985 20.2133C14.2529 20.1835 14.1884 20.1409 14.1077 20.0864C13.9463 19.9774 13.7208 19.8211 13.4524 19.625C12.9146 19.2322 12.2084 18.6823 11.5007 18.0338L11.5006 18.0338C10.6462 17.2511 9.96994 16.4896 9.48483 15.7721L20.7148 11.6585ZM15.0196 20.9221C14.8555 21.026 14.6445 21.026 14.4804 20.9221H15.0196ZM8.5 13.0392C8.5 12.5605 8.59679 12.0964 8.78686 11.6581L8.78374 14.461C8.59204 13.9636 8.5 13.4865 8.5 13.0392ZM9.48481 15.772C9.17888 15.3189 8.94468 14.8778 8.78377 14.461L9.48481 15.772Z" stroke="#ECECEC"/>
</svg>
